<?xml version="1.0" encoding="UTF-8"?>
<svg id="Ebene_2" data-name="Ebene 2" xmlns="http://www.w3.org/2000/svg" viewBox="0 0 1048.86 4019.3">
  <defs>
    <style>
      .cls-1 {
        stroke-width: 0px;
      }
    </style>
  </defs>
  <g id="Ebene_1-2" data-name="Ebene 1">
    <g>
      <path class="cls-1" d="M63.92,799.36c0-114.19,48.41-186.19,131.57-234.6,81.92-48.41,189.91-74.48,309.07-98.06,67.03-13.65,122.88-27.31,172.53-40.96,99.3-28.55,156.4-68.27,156.4-140.26,0-101.78-85.65-153.91-270.59-153.91-209.77,0-327.69,71.99-327.69,239.56H77.57C77.57,127.85,247.63,0,565.39,0c98.06,0,177.5,12.41,240.8,36,125.37,48.41,182.46,136.54,182.46,249.49,0,59.58-16.14,106.75-49.65,142.74-67.03,71.99-189.91,111.71-364.93,147.71-71.99,14.9-132.81,29.79-182.46,44.69-99.3,28.55-153.91,68.27-158.88,142.74h750.96v139.02H63.92v-103.02Z"/>
      <path class="cls-1" d="M251.97,1908.67C94.34,1841.64,0,1711.31,0,1501.54v-3.72c0-99.3,21.1-183.7,68.27-253.22,91.85-140.26,253.22-213.49,454.3-213.49,99.3,0,188.67,18.62,268.11,53.37,160.12,71.99,258.18,209.77,258.18,412.1v6.21c0,103.02-22.34,186.19-69.51,254.46-91.85,135.3-255.7,199.84-456.78,199.84-101.78,0-191.15-17.38-270.59-48.41ZM713.72,1785.79c111.71-42.2,177.5-132.81,177.5-284.25,0-78.2-14.9-140.26-45.93-188.67-62.06-98.06-172.53-142.74-322.73-142.74-224.67,0-364.93,101.78-364.93,330.17v1.24c0,71.99,14.9,130.33,45.93,177.5,62.06,94.34,172.53,139.02,317.76,139.02,73.23,0,137.78-11.17,192.39-32.27Z"/>
      <path class="cls-1" d="M170.67,2818.14h285.49v-450.57h-173.78v-121.64c127.85-4.96,183.7-59.58,202.32-162.6h127.85v734.82h274.32v146.47H170.67v-146.47Z"/>
      <path class="cls-1" d="M33.51,3772.29h168.81c34.75,78.2,124.12,116.68,286.73,116.68,250.73,0,377.34-103.02,377.34-331.41,0-28.55-1.24-54.62-4.97-78.2-21.1,40.96-53.37,76.96-95.58,107.99-86.89,62.06-202.32,95.58-338.86,95.58-81.92,0-151.43-7.45-211.01-26.07-117.92-34.75-183.7-111.71-183.7-248.25,0-62.06,18.62-115.44,54.62-163.84,73.23-94.34,212.25-151.43,413.34-151.43,328.93,0,513.88,136.54,513.88,458.02s-186.19,467.95-528.77,467.95c-248.25,0-407.13-74.48-451.82-247.01ZM842.81,3397.43c-44.68-117.92-150.19-167.57-340.1-167.57-219.7,0-307.83,65.79-307.83,175.02,0,121.64,95.58,152.67,283,152.67,177.5,0,306.59-58.34,364.93-160.12Z"/>
    </g>
  </g>
</svg>