<?xml version="1.0" encoding="utf-8"?>
<!-- Generator: Adobe Illustrator 28.2.0, SVG Export Plug-In . SVG Version: 6.00 Build 0)  -->
<svg version="1.1" id="Ebene_2_00000142158039096197942800000014613299030110802612_"
	 xmlns="http://www.w3.org/2000/svg" xmlns:xlink="http://www.w3.org/1999/xlink" x="0px" y="0px" viewBox="0 0 500 30"
	 style="enable-background:new 0 0 500 30;" xml:space="preserve">
<style type="text/css">
	.st0{fill:#FFFFFF;}
</style>
<g id="Ebene_1-2">
	<path class="st0" d="M485,0H15C6.7,0,0,6.7,0,15s6.7,15,15,15h145V20H15c-2.8,0-5-2.2-5-5s2.2-5,5-5h145c5.3,0,11.3,3.3,18,10
		c10,10,12,10,22,10h285c8.3,0,15-6.7,15-15S493.3,0,485,0z M485,20H200c-5.3,0-11.3-3.3-17.9-10H485c2.8,0,5,2.2,5,5
		S487.8,20,485,20z"/>
</g>
</svg>
