<?xml version="1.0" encoding="utf-8"?>
<!-- Generator: Adobe Illustrator 28.2.0, SVG Export Plug-In . SVG Version: 6.00 Build 0)  -->
<svg version="1.1" id="Ebene_2_00000173844265753855725240000005777321397788460933_"
	 xmlns="http://www.w3.org/2000/svg" xmlns:xlink="http://www.w3.org/1999/xlink" x="0px" y="0px" viewBox="0 0 500 30"
	 style="enable-background:new 0 0 500 30;" xml:space="preserve">
<style type="text/css">
	.st0{fill:#FFFFFF;}
</style>
<g id="Ebene_1-2">
	<path class="st0" d="M485,0H335c-10,0-12,0-22,10s-10,10-18,10H15c-2.8,0-5-2.2-5-5s2.2-5,5-5h280V0H15C6.7,0,0,6.7,0,15
		s6.7,15,15,15h280c10,0,12.1,0,22.1-10C327,10,327,10,335,10h150c2.8,0,5,2.2,5,5s-2.2,5-5,5H335v10h150c8.3,0,15-6.7,15-15
		S493.3,0,485,0z"/>
</g>
</svg>
