<?xml version="1.0" encoding="utf-8"?>
<!-- Generator: Adobe Illustrator 28.2.0, SVG Export Plug-In . SVG Version: 6.00 Build 0)  -->
<svg version="1.1" id="Ebene_2_00000003072474908402256640000002069433576154668947_"
	 xmlns="http://www.w3.org/2000/svg" xmlns:xlink="http://www.w3.org/1999/xlink" x="0px" y="0px" viewBox="0 0 500 30"
	 style="enable-background:new 0 0 500 30;" xml:space="preserve">
<style type="text/css">
	.st0{fill:none;}
	.st1{fill:#FFFFFF;}
</style>
<g id="Ebene_1-2">
	<g>
		<path class="st0" d="M15,10c-2.8,0-5,2.2-5,5s2.2,5,5,5h150V10H15z"/>
		<path class="st1" d="M485,0H215v10h270c2.8,0,5,2.2,5,5s-2.2,5-5,5H175V10V0h-10H15C6.7,0,0,6.7,0,15s6.7,15,15,15h150h10h310
			c8.3,0,15-6.7,15-15S493.3,0,485,0z M15,20c-2.8,0-5-2.2-5-5s2.2-5,5-5h150v10H15z"/>
	</g>
</g>
</svg>
