<?xml version="1.0" encoding="utf-8"?>
<!-- Generator: Adobe Illustrator 28.2.0, SVG Export Plug-In . SVG Version: 6.00 Build 0)  -->
<svg version="1.1" id="Ebene_2_00000049221959566753593960000008244888687612957117_"
	 xmlns="http://www.w3.org/2000/svg" xmlns:xlink="http://www.w3.org/1999/xlink" x="0px" y="0px" viewBox="0 0 500 30"
	 style="enable-background:new 0 0 500 30;" xml:space="preserve">
<style type="text/css">
	.st0{fill:#FFFFFF;}
</style>
<g id="Ebene_1-2">
	<path class="st0" d="M485,0H215c-10,0-12,0-22,10s-10,10-18,10H15c-2.8,0-5-2.2-5-5s2.2-5,5-5h160V0H15C6.7,0,0,6.7,0,15
		s6.7,15,15,15h160c10,0,12.1,0,22.1-10S207,10,215,10h270c2.8,0,5,2.2,5,5s-2.2,5-5,5H215v10h270c8.3,0,15-6.7,15-15S493.3,0,485,0
		z"/>
</g>
</svg>
